<?xml version="1.0" encoding="utf-8"?>
<!-- Generator: Adobe Illustrator 15.0.2, SVG Export Plug-In . SVG Version: 6.00 Build 0)  -->
<!DOCTYPE svg PUBLIC "-//W3C//DTD SVG 1.1//EN" "http://www.w3.org/Graphics/SVG/1.1/DTD/svg11.dtd">
<svg version="1.1" id="Layer_1" xmlns="http://www.w3.org/2000/svg" xmlns:xlink="http://www.w3.org/1999/xlink" x="0px" y="0px"
	 width="612px" height="792px" viewBox="0 0 612 792" enable-background="new 0 0 612 792" xml:space="preserve">
<pattern  x="290.5" y="412.5" width="71.999" height="72" patternUnits="userSpaceOnUse" id="Left_Shadow_2_" viewBox="28.856 -79.591 71.999 72" overflow="visible">
	<g>
		<polygon fill="none" points="28.856,-7.591 100.855,-7.591 100.855,-79.591 28.856,-79.591 		"/>
		<g>
			<polygon fill="none" points="28.856,-79.591 100.855,-79.591 100.855,-7.591 28.856,-7.591 			"/>
			<g>
				<polygon fill="none" points="28.856,-7.591 100.855,-7.591 100.855,-79.591 28.856,-79.591 				"/>
				<g>
					<polygon fill="none" points="28.856,-79.591 28.856,-7.591 100.855,-7.591 100.855,-79.591 					"/>
					<line fill="none" x1="5.106" y1="-73.591" x2="11.106" y2="-79.591"/>
					<line fill="none" x1="5.106" y1="-79.591" x2="11.106" y2="-73.591"/>
					
						<line fill="none" stroke="#231F20" stroke-width="0.3" stroke-linejoin="round" x1="21.372" y1="-18.107" x2="39.371" y2="-0.105"/>
					
						<line fill="none" stroke="#231F20" stroke-width="0.3" stroke-linejoin="round" x1="21.372" y1="-24.107" x2="45.371" y2="-0.105"/>
					
						<line fill="none" stroke="#231F20" stroke-width="0.3" stroke-linejoin="round" x1="21.372" y1="-30.107" x2="51.371" y2="-0.105"/>
					
						<line fill="none" stroke="#231F20" stroke-width="0.3" stroke-linejoin="round" x1="21.372" y1="-36.107" x2="57.371" y2="-0.105"/>
					
						<line fill="none" stroke="#231F20" stroke-width="0.3" stroke-linejoin="round" x1="21.372" y1="-42.107" x2="63.371" y2="-0.105"/>
					
						<line fill="none" stroke="#231F20" stroke-width="0.3" stroke-linejoin="round" x1="21.372" y1="-48.107" x2="69.371" y2="-0.105"/>
					
						<line fill="none" stroke="#231F20" stroke-width="0.3" stroke-linejoin="round" x1="21.372" y1="-54.107" x2="75.371" y2="-0.105"/>
					
						<line fill="none" stroke="#231F20" stroke-width="0.3" stroke-linejoin="round" x1="21.372" y1="-60.107" x2="81.371" y2="-0.105"/>
					
						<line fill="none" stroke="#231F20" stroke-width="0.3" stroke-linejoin="round" x1="21.372" y1="-66.107" x2="87.371" y2="-0.105"/>
					
						<line fill="none" stroke="#231F20" stroke-width="0.3" stroke-linejoin="round" x1="21.372" y1="-72.107" x2="93.371" y2="-0.105"/>
					
						<line fill="none" stroke="#231F20" stroke-width="0.3" stroke-linejoin="round" x1="21.372" y1="-78.107" x2="99.371" y2="-0.105"/>
					
						<line fill="none" stroke="#231F20" stroke-width="0.3" stroke-linejoin="round" x1="21.372" y1="-84.107" x2="105.371" y2="-0.105"/>
					
						<line fill="none" stroke="#231F20" stroke-width="0.3" stroke-linejoin="round" x1="27.372" y1="-84.107" x2="105.371" y2="-6.105"/>
					
						<line fill="none" stroke="#231F20" stroke-width="0.3" stroke-linejoin="round" x1="33.371" y1="-84.107" x2="105.371" y2="-12.105"/>
					
						<line fill="none" stroke="#231F20" stroke-width="0.3" stroke-linejoin="round" x1="39.371" y1="-84.107" x2="105.371" y2="-18.107"/>
					
						<line fill="none" stroke="#231F20" stroke-width="0.3" stroke-linejoin="round" x1="45.371" y1="-84.107" x2="105.371" y2="-24.107"/>
					
						<line fill="none" stroke="#231F20" stroke-width="0.3" stroke-linejoin="round" x1="51.371" y1="-84.107" x2="105.371" y2="-30.107"/>
					
						<line fill="none" stroke="#231F20" stroke-width="0.3" stroke-linejoin="round" x1="57.371" y1="-84.107" x2="105.371" y2="-36.107"/>
					
						<line fill="none" stroke="#231F20" stroke-width="0.3" stroke-linejoin="round" x1="63.371" y1="-84.107" x2="105.371" y2="-42.107"/>
					
						<line fill="none" stroke="#231F20" stroke-width="0.3" stroke-linejoin="round" x1="69.371" y1="-84.107" x2="105.371" y2="-48.107"/>
					
						<line fill="none" stroke="#231F20" stroke-width="0.3" stroke-linejoin="round" x1="75.371" y1="-84.107" x2="105.371" y2="-54.107"/>
					
						<line fill="none" stroke="#231F20" stroke-width="0.3" stroke-linejoin="round" x1="81.371" y1="-84.107" x2="105.371" y2="-60.107"/>
					
						<line fill="none" stroke="#231F20" stroke-width="0.3" stroke-linejoin="round" x1="87.371" y1="-84.107" x2="105.371" y2="-66.107"/>
					
						<line fill="none" stroke="#231F20" stroke-width="0.3" stroke-linejoin="round" x1="93.371" y1="-84.107" x2="105.371" y2="-72.107"/>
					
						<line fill="none" stroke="#231F20" stroke-width="0.3" stroke-linejoin="bevel" x1="0.106" y1="-21.091" x2="10.106" y2="-11.091"/>
				</g>
			</g>
		</g>
	</g>
</pattern>
<pattern  x="290.5" y="412.5" width="71.999" height="72" patternUnits="userSpaceOnUse" id="Right_Shadow_2_" viewBox="28.856 -79.591 71.999 72" overflow="visible">
	<g>
		<polygon fill="none" points="28.856,-7.591 100.855,-7.591 100.855,-79.591 28.856,-79.591 		"/>
		<g>
			<polygon fill="none" points="28.856,-79.591 100.855,-79.591 100.855,-7.591 28.856,-7.591 			"/>
			<g>
				<polygon fill="none" points="28.856,-7.591 100.855,-7.591 100.855,-79.591 28.856,-79.591 				"/>
				<g>
					<polygon fill="none" points="28.856,-79.591 28.856,-7.591 100.855,-7.591 100.855,-79.591 					"/>
					<line fill="none" x1="5.106" y1="-73.591" x2="11.106" y2="-79.591"/>
					<line fill="none" x1="5.106" y1="-79.591" x2="11.106" y2="-73.591"/>
					
						<line fill="none" stroke="#231F20" stroke-width="0.3" stroke-linejoin="round" x1="21.372" y1="-18.107" x2="39.371" y2="-0.105"/>
					
						<line fill="none" stroke="#231F20" stroke-width="0.3" stroke-linejoin="round" x1="21.372" y1="-24.107" x2="45.371" y2="-0.105"/>
					
						<line fill="none" stroke="#231F20" stroke-width="0.3" stroke-linejoin="round" x1="21.372" y1="-30.107" x2="51.371" y2="-0.105"/>
					
						<line fill="none" stroke="#231F20" stroke-width="0.3" stroke-linejoin="round" x1="21.372" y1="-36.107" x2="57.371" y2="-0.105"/>
					
						<line fill="none" stroke="#231F20" stroke-width="0.3" stroke-linejoin="round" x1="21.372" y1="-42.107" x2="63.371" y2="-0.105"/>
					
						<line fill="none" stroke="#231F20" stroke-width="0.3" stroke-linejoin="round" x1="21.372" y1="-48.107" x2="69.371" y2="-0.105"/>
					
						<line fill="none" stroke="#231F20" stroke-width="0.3" stroke-linejoin="round" x1="21.372" y1="-54.107" x2="75.371" y2="-0.105"/>
					
						<line fill="none" stroke="#231F20" stroke-width="0.3" stroke-linejoin="round" x1="21.372" y1="-60.107" x2="81.371" y2="-0.105"/>
					
						<line fill="none" stroke="#231F20" stroke-width="0.3" stroke-linejoin="round" x1="21.372" y1="-66.107" x2="87.371" y2="-0.105"/>
					
						<line fill="none" stroke="#231F20" stroke-width="0.3" stroke-linejoin="round" x1="21.372" y1="-72.107" x2="93.371" y2="-0.105"/>
					
						<line fill="none" stroke="#231F20" stroke-width="0.3" stroke-linejoin="round" x1="21.372" y1="-78.107" x2="99.371" y2="-0.105"/>
					
						<line fill="none" stroke="#231F20" stroke-width="0.3" stroke-linejoin="round" x1="21.372" y1="-84.107" x2="105.371" y2="-0.105"/>
					
						<line fill="none" stroke="#231F20" stroke-width="0.3" stroke-linejoin="round" x1="27.372" y1="-84.107" x2="105.371" y2="-6.105"/>
					
						<line fill="none" stroke="#231F20" stroke-width="0.3" stroke-linejoin="round" x1="33.371" y1="-84.107" x2="105.371" y2="-12.105"/>
					
						<line fill="none" stroke="#231F20" stroke-width="0.3" stroke-linejoin="round" x1="39.371" y1="-84.107" x2="105.371" y2="-18.107"/>
					
						<line fill="none" stroke="#231F20" stroke-width="0.3" stroke-linejoin="round" x1="45.371" y1="-84.107" x2="105.371" y2="-24.107"/>
					
						<line fill="none" stroke="#231F20" stroke-width="0.3" stroke-linejoin="round" x1="51.371" y1="-84.107" x2="105.371" y2="-30.107"/>
					
						<line fill="none" stroke="#231F20" stroke-width="0.3" stroke-linejoin="round" x1="57.371" y1="-84.107" x2="105.371" y2="-36.107"/>
					
						<line fill="none" stroke="#231F20" stroke-width="0.3" stroke-linejoin="round" x1="63.371" y1="-84.107" x2="105.371" y2="-42.107"/>
					
						<line fill="none" stroke="#231F20" stroke-width="0.3" stroke-linejoin="round" x1="69.371" y1="-84.107" x2="105.371" y2="-48.107"/>
					
						<line fill="none" stroke="#231F20" stroke-width="0.3" stroke-linejoin="round" x1="75.371" y1="-84.107" x2="105.371" y2="-54.107"/>
					
						<line fill="none" stroke="#231F20" stroke-width="0.3" stroke-linejoin="round" x1="81.371" y1="-84.107" x2="105.371" y2="-60.107"/>
					
						<line fill="none" stroke="#231F20" stroke-width="0.3" stroke-linejoin="round" x1="87.371" y1="-84.107" x2="105.371" y2="-66.107"/>
					
						<line fill="none" stroke="#231F20" stroke-width="0.3" stroke-linejoin="round" x1="93.371" y1="-84.107" x2="105.371" y2="-72.107"/>
					
						<line fill="none" stroke="#231F20" stroke-width="0.3" stroke-linejoin="bevel" x1="0.106" y1="-21.091" x2="10.106" y2="-11.091"/>
				</g>
			</g>
		</g>
	</g>
</pattern>
<g id="Text" display="none">
	<g display="inline">
		<path fill="#231F20" d="M278.283,549.238c-0.372,0.189-1.151,0.384-2.135,0.384c-2.279,0-3.982-1.439-3.982-4.104
			c0-2.543,1.715-4.244,4.222-4.244c0.996,0,1.643,0.217,1.919,0.358l-0.264,0.854c-0.384-0.192-0.948-0.336-1.619-0.336
			c-1.895,0-3.154,1.211-3.154,3.334c0,1.988,1.139,3.25,3.094,3.25c0.648,0,1.295-0.135,1.715-0.336L278.283,549.238z"/>
		<path fill="#231F20" d="M284.691,546.54c0,2.146-1.499,3.082-2.89,3.082c-1.559,0-2.783-1.151-2.783-2.986
			c0-1.931,1.284-3.067,2.878-3.067C283.564,543.565,284.691,544.776,284.691,546.54z M280.098,546.6
			c0,1.271,0.72,2.231,1.751,2.231c1.007,0,1.763-0.948,1.763-2.255c0-0.983-0.492-2.219-1.739-2.219
			C280.638,544.357,280.098,545.509,280.098,546.6z"/>
		<path fill="#231F20" d="M289.625,549.49v-5.001h-2.447v5.001h-1.043v-5.001h-0.804v-0.807h0.804v-0.18
			c0-0.812,0.192-1.512,0.647-1.979c0.336-0.337,0.816-0.539,1.463-0.539c0.336,0,0.648,0.104,0.828,0.202l-0.216,0.793
			c-0.156-0.084-0.384-0.156-0.624-0.156c-0.828,0-1.056,0.708-1.056,1.619v0.237h2.447v-0.273c0-0.815,0.18-1.562,0.671-2.026
			c0.396-0.384,0.924-0.54,1.403-0.54c0.384,0,0.708,0.084,0.899,0.168l-0.132,0.815c-0.168-0.071-0.372-0.132-0.684-0.132
			c-0.888,0-1.115,0.776-1.115,1.68v0.312h1.391v0.806h-1.391v5.001H289.625L289.625,549.49z"/>
		<path fill="#231F20" d="M293.454,546.779c0.024,1.428,0.923,2.016,1.991,2.016c0.755,0,1.223-0.132,1.607-0.3l0.192,0.755
			c-0.372,0.168-1.019,0.372-1.943,0.372c-1.787,0-2.854-1.188-2.854-2.938s1.032-3.115,2.723-3.115
			c1.907,0,2.399,1.652,2.399,2.723c0,0.216-0.012,0.372-0.036,0.491L293.454,546.779L293.454,546.779z M296.548,546.024
			c0.012-0.66-0.276-1.703-1.463-1.703c-1.08,0-1.535,0.972-1.619,1.703H296.548z"/>
		<path fill="#231F20" d="M307.096,549.238c-0.372,0.189-1.152,0.384-2.135,0.384c-2.279,0-3.982-1.439-3.982-4.104
			c0-2.543,1.715-4.244,4.222-4.244c0.996,0,1.643,0.217,1.919,0.358l-0.264,0.854c-0.387-0.192-0.948-0.336-1.622-0.336
			c-1.895,0-3.154,1.211-3.154,3.334c0,1.988,1.139,3.25,3.094,3.25c0.647,0,1.295-0.135,1.715-0.336L307.096,549.238z"/>
		<path fill="#231F20" d="M313.096,547.896c0,0.608,0.015,1.139,0.048,1.595h-0.936l-0.06-0.947h-0.024
			c-0.264,0.468-0.888,1.079-1.919,1.079c-0.911,0-2.003-0.516-2.003-2.543v-3.396h1.056v3.202c0,1.104,0.351,1.859,1.295,1.859
			c0.708,0,1.199-0.492,1.395-0.974c0.06-0.146,0.096-0.336,0.096-0.539v-3.552h1.056L313.096,547.896L313.096,547.896z"/>
		<path fill="#231F20" d="M314.85,545.58c0-0.743-0.021-1.343-0.047-1.896h0.938l0.059,0.995h0.025
			c0.42-0.707,1.114-1.112,2.062-1.112c1.414,0,2.474,1.188,2.474,2.938c0,2.087-1.283,3.118-2.65,3.118
			c-0.768,0-1.438-0.336-1.787-0.911H315.9v3.154h-1.044L314.85,545.58L314.85,545.58z M315.893,547.128
			c0,0.155,0.017,0.3,0.052,0.432c0.188,0.731,0.825,1.235,1.584,1.235c1.112,0,1.762-0.912,1.762-2.243
			c0-1.148-0.611-2.146-1.729-2.146c-0.719,0-1.399,0.504-1.596,1.295c-0.035,0.132-0.072,0.288-0.072,0.42V547.128L315.893,547.128
			z"/>
		<path fill="#231F20" d="M325.564,546.947l-0.843,2.543h-1.075l2.758-8.084h1.248l2.758,8.084h-1.115l-0.863-2.543H325.564z
			 M328.227,546.132l-0.803-2.326c-0.18-0.525-0.299-1.008-0.42-1.476h-0.023c-0.118,0.468-0.237,0.972-0.405,1.463l-0.791,2.339
			H328.227z"/>
		<path fill="#231F20" d="M332.645,541.406v8.084h-1.055v-8.084H332.645z"/>
		<path fill="#231F20" d="M279.458,560.341c-0.06-1.128-0.132-2.495-0.132-3.49h-0.024c-0.288,0.938-0.612,1.955-1.02,3.07
			l-1.427,3.922h-0.792l-1.319-3.85c-0.384-1.151-0.695-2.187-0.923-3.146h-0.024c-0.024,1.011-0.084,2.354-0.156,3.574
			l-0.216,3.466h-0.995l0.563-8.084h1.332l1.379,3.91c0.336,0.995,0.6,1.883,0.815,2.726h0.024c0.216-0.815,0.503-1.703,0.863-2.726
			l1.439-3.91h1.331l0.504,8.084h-1.032L279.458,560.341z"/>
		<path fill="#231F20" d="M286.408,562.499c0,0.504,0.024,0.996,0.084,1.392h-0.947l-0.084-0.729h-0.036
			c-0.324,0.456-0.947,0.863-1.775,0.863c-1.175,0-1.775-0.827-1.775-1.667c0-1.403,1.247-2.173,3.49-2.159v-0.119
			c0-0.468-0.132-1.344-1.319-1.332c-0.552,0-1.116,0.156-1.523,0.432l-0.24-0.707c0.479-0.3,1.187-0.504,1.919-0.504
			c1.775,0,2.207,1.211,2.207,2.362L286.408,562.499L286.408,562.499z M285.388,560.929c-1.151-0.021-2.458,0.183-2.458,1.31
			c0,0.693,0.456,1.008,0.983,1.008c0.768,0,1.259-0.479,1.427-0.972c0.036-0.12,0.048-0.24,0.048-0.339V560.929z"/>
		<path fill="#231F20" d="M293.116,555.375v7.017c0,0.519,0.024,1.104,0.048,1.499h-0.936l-0.048-1.008h-0.036
			c-0.312,0.648-1.007,1.143-1.955,1.143c-1.403,0-2.495-1.188-2.495-2.95c-0.012-1.933,1.2-3.106,2.603-3.106
			c0.9,0,1.487,0.42,1.751,0.876h0.024v-3.467L293.116,555.375L293.116,555.375z M292.072,560.448c0-0.132-0.012-0.312-0.048-0.443
			c-0.156-0.66-0.731-1.212-1.523-1.212c-1.091,0-1.739,0.96-1.739,2.231c0,1.175,0.588,2.146,1.715,2.146
			c0.708,0,1.355-0.479,1.547-1.259c0.036-0.146,0.048-0.288,0.048-0.456V560.448L292.072,560.448z"/>
		<path fill="#231F20" d="M295.47,561.18c0.024,1.431,0.923,2.019,1.991,2.019c0.755,0,1.223-0.132,1.607-0.3l0.192,0.755
			c-0.372,0.168-1.019,0.372-1.943,0.372c-1.787,0-2.854-1.188-2.854-2.938s1.032-3.118,2.723-3.118
			c1.907,0,2.399,1.655,2.399,2.726c0,0.216-0.012,0.372-0.036,0.488L295.47,561.18L295.47,561.18z M298.564,560.425
			c0.012-0.66-0.276-1.703-1.463-1.703c-1.08,0-1.535,0.975-1.619,1.703H298.564z"/>
		<path fill="#231F20" d="M303.438,555.375h1.043v3.646h0.024c0.372-0.647,1.043-1.059,1.979-1.059c1.448,0,2.459,1.199,2.459,2.95
			c0,2.075-1.32,3.104-2.615,3.104c-0.84,0-1.511-0.321-1.955-1.077h-0.024l-0.06,0.944h-0.899c0.024-0.396,0.048-0.98,0.048-1.499
			V555.375L303.438,555.375z M304.481,561.562c0,0.134,0.012,0.266,0.048,0.385c0.192,0.729,0.816,1.232,1.583,1.232
			c1.113,0,1.762-0.896,1.762-2.229c0-1.163-0.6-2.159-1.738-2.159c-0.708,0-1.379,0.504-1.595,1.296
			c-0.036,0.132-0.06,0.275-0.06,0.443V561.562z"/>
		<path fill="#231F20" d="M310.565,558.086l1.259,3.43c0.145,0.387,0.289,0.843,0.385,1.188h0.023
			c0.104-0.349,0.229-0.791,0.372-1.211l1.148-3.406h1.115l-1.583,4.138c-0.756,1.991-1.271,2.998-1.991,3.637
			c-0.527,0.441-1.031,0.624-1.295,0.672l-0.264-0.876c0.264-0.084,0.608-0.252,0.924-0.519c0.287-0.228,0.635-0.636,0.887-1.175
			c0.048-0.105,0.084-0.192,0.084-0.252c0-0.061-0.021-0.145-0.084-0.276l-2.135-5.349L310.565,558.086L310.565,558.086z"/>
		<path fill="#231F20" d="M272.646,570.326c0.636-0.107,1.391-0.18,2.219-0.18c1.499,0,2.566,0.356,3.274,1.008
			c0.732,0.658,1.151,1.595,1.151,2.899c0,1.319-0.419,2.398-1.163,3.145c-0.768,0.756-2.015,1.164-3.586,1.164
			c-0.756,0-1.367-0.036-1.895-0.1V570.326z M273.69,577.475c0.264,0.036,0.647,0.051,1.055,0.051c2.243,0,3.442-1.247,3.442-3.433
			c0.012-1.907-1.067-3.119-3.274-3.119c-0.54,0-0.947,0.05-1.223,0.108V577.475z"/>
		<path fill="#231F20" d="M284.68,576.898c0,0.504,0.024,0.993,0.084,1.392h-0.947l-0.084-0.731h-0.036
			c-0.324,0.456-0.947,0.863-1.775,0.863c-1.175,0-1.775-0.827-1.775-1.667c0-1.403,1.247-2.171,3.49-2.159v-0.119
			c0-0.468-0.132-1.344-1.319-1.332c-0.551,0-1.115,0.156-1.523,0.435l-0.24-0.707c0.479-0.3,1.188-0.504,1.919-0.504
			c1.775,0,2.207,1.211,2.207,2.361L284.68,576.898L284.68,576.898z M283.661,575.328c-1.151-0.024-2.459,0.18-2.459,1.307
			c0,0.695,0.456,1.008,0.983,1.008c0.768,0,1.259-0.479,1.427-0.972c0.036-0.12,0.048-0.24,0.048-0.336L283.661,575.328
			L283.661,575.328z"/>
		<path fill="#231F20" d="M286.386,574.057c0-0.609-0.012-1.092-0.048-1.568h0.936l0.06,0.959h0.024
			c0.288-0.539,0.959-1.079,1.919-1.079c0.803,0,2.051,0.479,2.051,2.471v3.454h-1.056v-3.346c0-0.938-0.348-1.719-1.343-1.719
			c-0.684,0-1.223,0.492-1.415,1.08c-0.048,0.135-0.072,0.312-0.072,0.491v3.49h-1.056V574.057z"/>
		<path fill="#231F20" d="M296.669,570.206v3.383h3.91v-3.383h1.056v8.084h-1.056v-3.79h-3.91v3.79h-1.056v-8.084H296.669z"/>
		<path fill="#231F20" d="M307.492,576.898c0,0.504,0.021,0.993,0.084,1.392h-0.948l-0.084-0.731h-0.036
			c-0.324,0.456-0.947,0.863-1.775,0.863c-1.175,0-1.775-0.827-1.775-1.667c0-1.403,1.247-2.171,3.49-2.159v-0.119
			c0-0.468-0.132-1.344-1.319-1.332c-0.552,0-1.116,0.156-1.523,0.435l-0.24-0.707c0.479-0.3,1.187-0.504,1.919-0.504
			c1.772,0,2.207,1.211,2.207,2.361V576.898z M306.472,575.328c-1.151-0.024-2.458,0.18-2.458,1.307
			c0,0.695,0.456,1.008,0.983,1.008c0.768,0,1.259-0.479,1.427-0.972c0.036-0.12,0.048-0.24,0.048-0.336V575.328z"/>
		<path fill="#231F20" d="M309.197,574.057c0-0.609-0.015-1.092-0.047-1.568h0.936l0.059,0.959h0.025
			c0.287-0.539,0.959-1.079,1.918-1.079c0.804,0,2.051,0.479,2.051,2.471v3.454h-1.055v-3.346c0-0.938-0.348-1.719-1.344-1.719
			c-0.687,0-1.226,0.492-1.415,1.08c-0.048,0.135-0.071,0.312-0.071,0.491v3.49h-1.057V574.057L309.197,574.057z"/>
		<path fill="#231F20" d="M315.857,574.057c0-0.609-0.015-1.092-0.052-1.568h0.938l0.061,0.959h0.023
			c0.289-0.539,0.961-1.079,1.92-1.079c0.803,0,2.051,0.479,2.051,2.471v3.454h-1.055v-3.346c0-0.938-0.353-1.719-1.344-1.719
			c-0.687,0-1.228,0.492-1.416,1.08c-0.047,0.135-0.072,0.312-0.072,0.491v3.49h-1.055V574.057L315.857,574.057z"/>
		<path fill="#231F20" d="M323.693,570.854c0,0.359-0.252,0.647-0.672,0.647c-0.388,0-0.64-0.288-0.64-0.647
			c0-0.357,0.269-0.657,0.66-0.657C323.43,570.194,323.693,570.482,323.693,570.854z M322.518,578.29v-5.805h1.058v5.805H322.518z"
			/>
		<path fill="#231F20" d="M330.291,577.438c0,1.347-0.277,2.146-0.828,2.662c-0.576,0.52-1.391,0.696-2.123,0.696
			c-0.695,0-1.463-0.168-1.932-0.479l0.266-0.816c0.383,0.252,0.982,0.468,1.703,0.468c1.078,0,1.869-0.562,1.869-2.038v-0.636
			h-0.023c-0.311,0.539-0.944,0.971-1.846,0.971c-1.439,0-2.471-1.223-2.471-2.83c0-1.967,1.28-3.067,2.625-3.067
			c1.008,0,1.549,0.516,1.812,0.995h0.023l0.035-0.875h0.936c-0.035,0.404-0.047,0.888-0.047,1.583L330.291,577.438L330.291,577.438
			z M329.234,574.776c0-0.184-0.015-0.336-0.062-0.471c-0.19-0.624-0.696-1.128-1.477-1.128c-1.006,0-1.729,0.854-1.729,2.195
			c0,1.139,0.588,2.087,1.715,2.087c0.66,0,1.248-0.408,1.466-1.08c0.061-0.18,0.084-0.384,0.084-0.562L329.234,574.776
			L329.234,574.776z"/>
		<path fill="#231F20" d="M336.111,576.898c0,0.504,0.021,0.993,0.084,1.392h-0.947l-0.084-0.731h-0.037
			c-0.324,0.456-0.947,0.863-1.775,0.863c-1.174,0-1.771-0.827-1.771-1.667c0-1.403,1.246-2.171,3.49-2.159v-0.119
			c0-0.468-0.136-1.344-1.32-1.332c-0.551,0-1.115,0.156-1.523,0.435l-0.237-0.707c0.479-0.3,1.188-0.504,1.92-0.504
			c1.772,0,2.207,1.211,2.207,2.361v2.171L336.111,576.898L336.111,576.898z M335.092,575.328c-1.149-0.024-2.459,0.18-2.459,1.307
			c0,0.695,0.455,1.008,0.984,1.008c0.768,0,1.258-0.479,1.426-0.972c0.037-0.12,0.049-0.24,0.049-0.336V575.328z"/>
		<path fill="#231F20" d="M337.818,574.057c0-0.609-0.017-1.092-0.052-1.568h0.938l0.061,0.959h0.023
			c0.287-0.539,0.959-1.079,1.918-1.079c0.805,0,2.051,0.479,2.051,2.471v3.454h-1.055v-3.346c0-0.938-0.348-1.719-1.344-1.719
			c-0.687,0-1.226,0.492-1.414,1.08c-0.049,0.135-0.072,0.312-0.072,0.491v3.49h-1.055V574.057L337.818,574.057z"/>
	</g>
	<g display="inline">
		<path fill="#231F20" d="M277.588,598.117v7.017c0,0.519,0.024,1.104,0.048,1.499H276.7l-0.048-1.008h-0.036
			c-0.312,0.648-1.007,1.14-1.955,1.14c-1.403,0-2.495-1.188-2.495-2.947c-0.012-1.934,1.2-3.106,2.603-3.106
			c0.9,0,1.487,0.42,1.751,0.876h0.024v-3.467L277.588,598.117L277.588,598.117z M276.544,603.19c0-0.135-0.012-0.312-0.048-0.443
			c-0.156-0.66-0.731-1.212-1.523-1.212c-1.091,0-1.739,0.96-1.739,2.229c0,1.178,0.588,2.146,1.715,2.146
			c0.708,0,1.355-0.479,1.547-1.259c0.036-0.146,0.048-0.288,0.048-0.456V603.19L276.544,603.19z"/>
		<path fill="#231F20" d="M283.432,605.241c0,0.504,0.024,0.996,0.084,1.392h-0.947l-0.084-0.729h-0.036
			c-0.324,0.456-0.947,0.86-1.775,0.86c-1.175,0-1.775-0.825-1.775-1.667c0-1.4,1.247-2.171,3.49-2.156v-0.119
			c0-0.47-0.132-1.345-1.319-1.332c-0.551,0-1.115,0.156-1.523,0.432l-0.24-0.707c0.479-0.3,1.188-0.504,1.919-0.504
			c1.775,0,2.207,1.211,2.207,2.362L283.432,605.241L283.432,605.241z M282.413,603.671c-1.151-0.021-2.459,0.18-2.459,1.308
			c0,0.695,0.456,1.01,0.983,1.01c0.768,0,1.259-0.479,1.427-0.975c0.036-0.119,0.048-0.237,0.048-0.336L282.413,603.671
			L282.413,603.671z"/>
		<path fill="#231F20" d="M285.138,602.399c0-0.612-0.012-1.095-0.048-1.571h0.936l0.06,0.959h0.024
			c0.288-0.539,0.959-1.079,1.919-1.079c0.803,0,2.051,0.479,2.051,2.471v3.454h-1.056v-3.346c0-0.938-0.348-1.716-1.343-1.716
			c-0.684,0-1.223,0.491-1.415,1.08c-0.048,0.132-0.072,0.312-0.072,0.488v3.49h-1.056V602.399z"/>
		<path fill="#231F20" d="M291.798,598.117h1.056v3.635h0.024c0.168-0.301,0.432-0.576,0.755-0.756
			c0.312-0.18,0.684-0.288,1.08-0.288c0.779,0,2.027,0.479,2.027,2.471v3.454h-1.056v-3.334c0-0.936-0.348-1.715-1.343-1.715
			c-0.684,0-1.211,0.479-1.415,1.043c-0.06,0.156-0.072,0.312-0.072,0.504v3.502h-1.056V598.117z"/>
		<path fill="#231F20" d="M302.536,605.241c0,0.504,0.024,0.996,0.084,1.392h-0.947l-0.084-0.729h-0.036
			c-0.324,0.456-0.947,0.86-1.775,0.86c-1.175,0-1.775-0.825-1.775-1.667c0-1.4,1.247-2.171,3.49-2.156v-0.119
			c0-0.47-0.132-1.345-1.319-1.332c-0.551,0-1.115,0.156-1.523,0.432l-0.24-0.707c0.479-0.3,1.188-0.504,1.919-0.504
			c1.775,0,2.207,1.211,2.207,2.362L302.536,605.241L302.536,605.241z M301.517,603.671c-1.151-0.021-2.459,0.18-2.459,1.308
			c0,0.695,0.456,1.01,0.983,1.01c0.768,0,1.259-0.479,1.427-0.975c0.036-0.119,0.048-0.237,0.048-0.336L301.517,603.671
			L301.517,603.671z"/>
		<path fill="#231F20" d="M304.242,602.399c0-0.612-0.013-1.095-0.049-1.571h0.936l0.061,0.959h0.023
			c0.288-0.539,0.96-1.079,1.919-1.079c0.804,0,2.051,0.479,2.051,2.471v3.454h-1.055v-3.346c0-0.938-0.349-1.716-1.344-1.716
			c-0.687,0-1.224,0.491-1.415,1.08c-0.048,0.132-0.072,0.312-0.072,0.488v3.49h-1.055V602.399L304.242,602.399z"/>
		<path fill="#231F20" d="M310.902,602.399c0-0.612-0.016-1.095-0.052-1.571h0.938l0.061,0.959h0.023
			c0.288-0.539,0.96-1.079,1.919-1.079c0.804,0,2.051,0.479,2.051,2.471v3.454h-1.055v-3.346c0-0.938-0.349-1.716-1.344-1.716
			c-0.687,0-1.227,0.491-1.415,1.08c-0.048,0.132-0.072,0.312-0.072,0.488v3.49h-1.055V602.399L310.902,602.399z"/>
		<path fill="#231F20" d="M318.737,599.197c0,0.356-0.252,0.646-0.672,0.646c-0.387,0-0.639-0.288-0.639-0.646
			c0-0.36,0.268-0.66,0.66-0.66C318.474,598.537,318.737,598.825,318.737,599.197z M317.562,606.633v-5.805h1.055v5.805H317.562z"/>
		<path fill="#231F20" d="M325.335,605.781c0,1.344-0.276,2.146-0.827,2.662c-0.576,0.517-1.392,0.693-2.123,0.693
			c-0.693,0-1.464-0.168-1.932-0.479l0.265-0.816c0.384,0.252,0.983,0.47,1.703,0.47c1.079,0,1.87-0.562,1.87-2.038v-0.638h-0.023
			c-0.312,0.539-0.944,0.974-1.847,0.974c-1.438,0-2.471-1.226-2.471-2.83c0-1.969,1.283-3.07,2.626-3.07
			c1.008,0,1.548,0.516,1.812,0.995h0.023l0.036-0.875h0.936c-0.036,0.407-0.048,0.888-0.048,1.583V605.781L325.335,605.781z
			 M324.279,603.119c0-0.182-0.015-0.336-0.062-0.468c-0.189-0.624-0.693-1.128-1.476-1.128c-1.007,0-1.729,0.852-1.729,2.192
			c0,1.142,0.588,2.087,1.717,2.087c0.657,0,1.245-0.408,1.464-1.08c0.061-0.18,0.084-0.384,0.084-0.562L324.279,603.119
			L324.279,603.119z"/>
		<path fill="#231F20" d="M331.155,605.241c0,0.504,0.021,0.996,0.084,1.392h-0.947l-0.084-0.729h-0.036
			c-0.324,0.456-0.947,0.86-1.772,0.86c-1.178,0-1.774-0.825-1.774-1.667c0-1.4,1.247-2.171,3.49-2.156v-0.119
			c0-0.47-0.132-1.345-1.319-1.332c-0.552,0-1.115,0.156-1.521,0.432l-0.24-0.707c0.479-0.3,1.188-0.504,1.919-0.504
			c1.772,0,2.207,1.211,2.207,2.362v2.17L331.155,605.241L331.155,605.241z M330.136,603.671c-1.148-0.021-2.458,0.18-2.458,1.308
			c0,0.695,0.455,1.01,0.983,1.01c0.768,0,1.259-0.479,1.427-0.975c0.036-0.119,0.048-0.237,0.048-0.336V603.671z"/>
		<path fill="#231F20" d="M332.862,602.399c0-0.612-0.016-1.095-0.05-1.571h0.937l0.061,0.959h0.023
			c0.288-0.539,0.96-1.079,1.919-1.079c0.804,0,2.051,0.479,2.051,2.471v3.454h-1.055v-3.346c0-0.938-0.348-1.716-1.344-1.716
			c-0.687,0-1.227,0.491-1.415,1.08c-0.048,0.132-0.072,0.312-0.072,0.488v3.49h-1.055V602.399L332.862,602.399z"/>
		<path fill="#231F20" d="M339.271,606.009c0-0.432,0.3-0.755,0.72-0.755c0.419,0,0.707,0.312,0.707,0.755
			c0,0.436-0.288,0.756-0.731,0.756C339.558,606.765,339.271,606.441,339.271,606.009z"/>
		<path fill="#231F20" d="M342.006,598.117h1.043v3.646h0.024c0.371-0.646,1.043-1.056,1.979-1.056c1.451,0,2.459,1.199,2.459,2.95
			c0,2.075-1.316,3.104-2.612,3.104c-0.842,0-1.514-0.321-1.955-1.079h-0.023l-0.06,0.947h-0.9c0.024-0.396,0.049-0.98,0.049-1.499
			L342.006,598.117L342.006,598.117z M343.049,604.306c0,0.136,0.012,0.268,0.048,0.387c0.192,0.729,0.815,1.232,1.583,1.232
			c1.115,0,1.767-0.896,1.767-2.229c0-1.163-0.603-2.159-1.739-2.159c-0.708,0-1.38,0.504-1.596,1.296
			c-0.035,0.132-0.062,0.275-0.062,0.443V604.306L343.049,604.306z"/>
		<path fill="#231F20" d="M348.834,598.117h1.055v8.516h-1.055V598.117z"/>
		<path fill="#231F20" d="M356.919,603.683c0,2.146-1.499,3.082-2.891,3.082c-1.562,0-2.782-1.148-2.782-2.983
			c0-1.934,1.283-3.07,2.878-3.07C355.791,600.708,356.919,601.919,356.919,603.683z M352.325,603.742
			c0,1.271,0.72,2.229,1.751,2.229c1.008,0,1.763-0.945,1.763-2.255c0-0.98-0.491-2.219-1.738-2.219
			C352.865,601.5,352.325,602.651,352.325,603.742z"/>
		<path fill="#231F20" d="M363.219,605.781c0,1.344-0.272,2.146-0.827,2.662c-0.573,0.517-1.392,0.693-2.123,0.693
			c-0.693,0-1.464-0.168-1.931-0.479l0.264-0.816c0.387,0.252,0.983,0.47,1.703,0.47c1.079,0,1.871-0.562,1.871-2.038v-0.638h-0.021
			c-0.312,0.539-0.947,0.974-1.85,0.974c-1.438,0-2.471-1.226-2.471-2.83c0-1.969,1.283-3.07,2.626-3.07
			c1.008,0,1.548,0.516,1.812,0.995h0.021l0.036-0.875h0.937c-0.034,0.407-0.049,0.888-0.049,1.583L363.219,605.781L363.219,605.781
			z M362.163,603.119c0-0.182-0.012-0.336-0.062-0.468c-0.189-0.624-0.692-1.128-1.476-1.128c-1.007,0-1.727,0.852-1.727,2.192
			c0,1.142,0.587,2.087,1.715,2.087c0.658,0,1.247-0.408,1.463-1.08c0.061-0.18,0.084-0.384,0.084-0.562L362.163,603.119
			L362.163,603.119z"/>
		<path fill="#231F20" d="M364.817,605.565c0.321,0.188,0.876,0.405,1.4,0.405c0.756,0,1.115-0.372,1.115-0.861
			c0-0.504-0.3-0.771-1.067-1.058c-1.056-0.384-1.547-0.946-1.547-1.644c0-0.938,0.771-1.703,2.003-1.703
			c0.589,0,1.104,0.156,1.415,0.36l-0.252,0.768c-0.228-0.146-0.646-0.349-1.188-0.349c-0.623,0-0.959,0.357-0.959,0.792
			c0,0.479,0.336,0.692,1.091,0.993c0.996,0.371,1.521,0.878,1.521,1.738c0,1.031-0.804,1.751-2.155,1.751
			c-0.639,0-1.227-0.168-1.634-0.406L364.817,605.565z"/>
		<path fill="#231F20" d="M369.714,602.723c0-0.74-0.021-1.343-0.049-1.895h0.936l0.062,0.995h0.021
			c0.423-0.707,1.115-1.115,2.063-1.115c1.415,0,2.471,1.188,2.471,2.938c0,2.087-1.283,3.115-2.648,3.115
			c-0.771,0-1.438-0.336-1.786-0.911h-0.024v3.154h-1.043L369.714,602.723L369.714,602.723z M370.757,604.271
			c0,0.152,0.012,0.3,0.048,0.432c0.192,0.729,0.828,1.234,1.583,1.234c1.115,0,1.767-0.911,1.767-2.242
			c0-1.151-0.612-2.146-1.729-2.146c-0.72,0-1.4,0.504-1.595,1.295c-0.036,0.132-0.072,0.288-0.072,0.42L370.757,604.271
			L370.757,604.271z"/>
		<path fill="#231F20" d="M381.794,603.683c0,2.146-1.499,3.082-2.891,3.082c-1.562,0-2.782-1.148-2.782-2.983
			c0-1.934,1.283-3.07,2.878-3.07C380.666,600.708,381.794,601.919,381.794,603.683z M377.2,603.742c0,1.271,0.72,2.229,1.751,2.229
			c1.008,0,1.763-0.945,1.763-2.255c0-0.98-0.491-2.219-1.738-2.219C377.74,601.5,377.2,602.651,377.2,603.742z"/>
		<path fill="#231F20" d="M384.399,599.438v1.394h1.512v0.804h-1.512v3.13c0,0.723,0.201,1.128,0.792,1.128
			c0.285,0,0.453-0.021,0.608-0.069l0.048,0.804c-0.203,0.071-0.524,0.146-0.936,0.146c-0.491,0-0.887-0.169-1.139-0.442
			c-0.288-0.324-0.408-0.84-0.408-1.523v-3.166h-0.899v-0.804h0.899v-1.079L384.399,599.438z"/>
		<path fill="#231F20" d="M386.812,606.009c0-0.432,0.301-0.755,0.721-0.755c0.419,0,0.707,0.312,0.707,0.755
			c0,0.436-0.288,0.756-0.731,0.756C387.101,606.765,386.812,606.441,386.812,606.009z"/>
		<path fill="#231F20" d="M393.688,606.429c-0.274,0.132-0.889,0.336-1.669,0.336c-1.751,0-2.89-1.188-2.89-2.962
			c0-1.787,1.223-3.095,3.118-3.095c0.623,0,1.175,0.156,1.463,0.312l-0.239,0.804c-0.252-0.132-0.646-0.275-1.224-0.275
			c-1.331,0-2.051,0.995-2.051,2.194c0,1.344,0.86,2.171,2.015,2.171c0.6,0,0.995-0.144,1.295-0.275L393.688,606.429z"/>
		<path fill="#231F20" d="M400.105,603.683c0,2.146-1.499,3.082-2.894,3.082c-1.56,0-2.782-1.148-2.782-2.983
			c0-1.934,1.283-3.07,2.878-3.07C398.978,600.708,400.105,601.919,400.105,603.683z M395.512,603.742
			c0,1.271,0.723,2.229,1.751,2.229c1.011,0,1.766-0.945,1.766-2.255c0-0.98-0.491-2.219-1.738-2.219
			C396.052,601.5,395.512,602.651,395.512,603.742z"/>
		<path fill="#231F20" d="M401.441,602.399c0-0.612-0.024-1.095-0.052-1.571h0.927l0.048,0.947h0.036
			c0.321-0.555,0.86-1.067,1.835-1.067c0.776,0,1.379,0.479,1.631,1.163h0.021c0.183-0.336,0.42-0.575,0.659-0.755
			c0.352-0.268,0.72-0.408,1.271-0.408c0.776,0,1.919,0.504,1.919,2.519v3.406h-1.031v-3.271c0-1.127-0.42-1.787-1.26-1.787
			c-0.611,0-1.067,0.441-1.259,0.945c-0.051,0.155-0.086,0.338-0.086,0.527v3.586h-1.029v-3.479c0-0.923-0.408-1.583-1.212-1.583
			c-0.647,0-1.142,0.525-1.31,1.056c-0.061,0.146-0.084,0.336-0.084,0.516v3.49h-1.031V602.4L401.441,602.399L401.441,602.399z"/>
	</g>
</g>
<g id="Artwork">
	<g id="Cup">
		<path id="Cup_Base" fill="#FFCA2F" d="M239.787,304.855l21.043,205.56c0,0,48.941,11.216,94.312-1.019l18.023-205.138
			C373.169,304.262,348.89,297.208,239.787,304.855z"/>
	</g>
	<g id="Sleeve_1_">
		<path id="Sleeve" fill="#1BA3DD" d="M241.967,335.549c-2.039-2.549,122.863-5.608,128.982-1.019
			c-0.51,0.509-4.588,95.334-6.627,101.456c0.51,0.511-59.65,11.218-112.67,0.511C251.652,436.493,244.006,338.098,241.967,335.549z
			"/>
		<pattern  id="Left_Shadow_3_" xlink:href="#Left_Shadow_2_" patternTransform="matrix(1 0 0 -1 -379.5786 -32035.5234)">
		</pattern>
		<polygon id="Left_Shadow" display="none" fill="url(#Left_Shadow_3_)" points="255.155,432.618 263.822,435.284 258.488,337.284 
			245.822,338.618 		"/>
		<pattern  id="Right_Shadow_3_" xlink:href="#Right_Shadow_2_" patternTransform="matrix(1 0 0 -1 -379.5786 -32035.5234)">
		</pattern>
		<polygon id="Right_Shadow" display="none" fill="url(#Right_Shadow_3_)" points="360.489,432.618 351.822,435.284 
			352.489,337.284 366.489,338.618 		"/>
	</g>
	<g id="Lid">
		<path id="Left_Shadow_1_" display="none" fill="#231F20" d="M240.184,307.43c0,0-18.233-0.991,0.198-2.774
			C240.382,304.854,240.184,307.43,240.184,307.43z"/>
		<path id="Right_Shadow_1_" display="none" fill="#231F20" d="M372.773,306.638c0,0,17.238-1.784,0.396-2.973
			C373.367,303.665,372.773,306.638,372.773,306.638z"/>
		<path id="Lid_1_" fill="#00B171" d="M233.645,306.052c0,0,2.971-4.755,2.179-6.738s-0.991-3.766,3.37-5.748
			c0.197-0.198,2.379-10.703,2.973-15.657c5.549-2.378,18.828-4.558,35.277-5.153c16.451-0.595,63.223-0.396,66.988,0
			c3.769,0.396,19.426,0.199,26.954,4.36c0.598,4.162,2.183,15.458,2.183,15.458s7.729,1.388,3.564,6.739
			c0.792,2.18,1.587,4.757,2.379,5.748C362.863,302.484,255.842,302.484,233.645,306.052z"/>
		<path id="Lip_Shadow" display="none" fill="#231F20" d="M373.087,293.25c0,0,5.991,0.781,1.823,4.689
			c0-0.26-45.334-1.042-45.334-1.042L373.087,293.25z"/>
	</g>
</g>
</svg>
