<svg xmlns="http://www.w3.org/2000/svg" viewBox="0 0 1024 1024"><path fill="#679C39" d="M618.812 164.904c2.855-1.517 5.834-3.027 9.158-3.089l-.227.899c-8.541 31.495-17.715 62.811-26.458 94.251-13.241 47.192-26.623 94.337-39.856 141.537-1.674 6.053-3.59 12.044-4.959 18.184-.055.227-.172.673-.227.892-1.783-2.127-2.26-4.943-3.535-7.344-6.304-13.53-18.724-23.643-32.692-28.484-6.272-2.268-12.905-3.293-19.537-3.746-.868-28.774 3.418-57.805 13.851-84.694 10.895-28.687 27.264-55.138 47.129-78.468 9.276-10.504 18.841-20.82 29.532-29.908 8.668-7.454 17.771-14.532 27.821-20.03z"/><path fill="#628837" d="M627.744 162.714l.305-1.126c4.638 5.631 7.164 12.6 9.831 19.302 10.621 29.43 15.462 60.801 15.681 92.03-.117 35.734-6.851 71.914-22.947 104.012-4.567 9.315-9.925 18.215-15.665 26.85-20.296-4.403-41.311 2.033-58.478 12.905 1.369-6.139 3.285-12.13 4.959-18.184 13.233-47.2 26.615-94.345 39.856-141.537 8.743-31.442 17.917-62.757 26.458-94.252z"/><path fill="#679C39" d="M304.994 247.267c21.461 10.597 41.639 23.878 59.659 39.653 22.673 19.873 42.233 44.595 51.322 73.705 5.412 17.339 7.485 35.633 6.875 53.754-.039.907-.759 1.58-1.204 2.323-6.57 8.642-11.677 18.434-14.704 28.875-13.319-5.725-28.445-6.296-42.382-2.612-17.23-57.195-34.53-114.359-51.72-171.562-2.643-7.852-4.364-16.033-7.649-23.666l-.197-.47z"/><path fill="#628837" d="M275.72 320.542c6.155-25.543 16.432-50.023 29.47-72.806 3.285 7.633 5.005 15.814 7.649 23.666 17.191 57.203 34.491 114.367 51.72 171.562-18.473 4.786-35.163 15.54-47.872 29.696-22.087-23.166-39.082-52.111-44.533-83.919-3.825-22.657-1.713-45.948 3.566-68.199z"/><path fill="#679C39" d="M856.532 292.957c11.121-1.924 22.431-3.308 33.732-2.487 1.431.141 2.769.735 4.106 1.267-7.336 5.131-13.828 11.34-20.937 16.768-42.226 34.436-84.412 68.919-126.654 103.339-7.97 6.585-16.19 12.881-23.862 19.803-16.815-12.897-37.862-21.039-59.236-20.217 15.407-21.688 33.904-41.24 55.107-57.336 22.423-17.136 47.247-31.018 73.291-41.835 20.765-8.571 42.343-15.266 64.453-19.302z"/><path fill="#628837" d="M873.433 308.505c7.109-5.428 13.601-11.638 20.937-16.768-.305 10.418-3.465 20.483-6.812 30.267-5.905 18.426-14.227 36.008-23.627 52.894-25.442 45.112-61.255 85.202-106.241 111.457-3.895-21.899-17.488-41.146-34.772-54.708 7.672-6.922 15.892-13.217 23.862-19.803 42.241-34.42 84.427-68.903 126.653-103.339z"/><path fill="#A8302D" d="M491.369 393.379c6.82-1.087 13.781.031 20.436 1.588 11.45 3.16 22.094 10.746 27.17 21.695 5.842 12.216 5.146 26.779-.008 39.097-5.936 14.054-16.268 26.091-28.828 34.655-11.153 7.469-24.073 12.295-37.392 13.953-10.605 1.087-21.797.172-31.347-4.927-12.342-6.358-21.172-19.388-21.774-33.349-.72-11.411 3.121-22.634 8.806-32.387 12.976-22.438 37.174-37.838 62.937-40.325zm76.998 33.732c10.238-5.381 21.469-9.776 33.239-9.417 6.883-.227 13.687 1.431 19.967 4.176-3.418 3.879-7.469 7.203-10.441 11.473-5.842 8.173-9.025 18.035-9.815 28.007-.68 6.233.07 12.49.258 18.731-6.022-1.416-11.911-3.394-18.012-4.505-8.822-1.689-17.848-1.228-26.771-1.173 1.682-5.068 4.685-9.557 6.468-14.586 3.855-10.393 6.186-21.584 5.107-32.706z"/><path fill="#8F2729" d="M621.573 421.871c1.744.665 3.41 1.525 5.005 2.511-11.129 8.501-18.215 21.625-20.335 35.374-1.384 9.886-.391 20.061 2.753 29.532-20.984-10.214-45.565-12.592-68.16-6.89 10.746-13.812 18.137-30.963 17.417-48.717 3.199-2.432 6.507-4.755 10.113-6.57 1.079 11.121-1.251 22.313-5.107 32.707-1.783 5.029-4.786 9.518-6.468 14.586 8.924-.055 17.949-.516 26.771 1.173 6.1 1.111 11.99 3.089 18.012 4.505-.188-6.241-.938-12.498-.258-18.731.79-9.972 3.973-19.834 9.815-28.007 2.973-4.27 7.024-7.594 10.442-11.473z"/><path fill="#A8302D" d="M662.156 426.634c13.875-1.001 27.726 2.894 39.864 9.456 11.176 5.967 20.874 14.602 28.375 24.793 7.868 10.762 13.1 23.815 12.936 37.283-.469 8.181-2.37 16.588-7.32 23.291-8.587 12.037-23.745 18.2-38.276 17.918-24.472-.149-47.779-13.39-62.388-32.692-8.275-10.738-14.289-23.768-14.539-37.494-.156-10.824 3.762-21.852 11.38-29.642 7.921-7.861 18.917-12.17 29.968-12.913zm-306.279 35.445c8.58-4.043 18.012-6.28 27.499-6.335 7.266.25 14.492 2.002 20.937 5.404-.133 11.481 2.628 23.158 9.127 32.731 3.097 4.833 7.141 8.947 11.411 12.748-2.471 19.701-13.898 37.619-29.141 50.031-1.447 1.369-3.433 1.728-5.318 2.065-12.388 2.26-24.222 7.242-34.678 14.226-.79.454-1.564 1.017-2.464 1.212-13.562 1.103-27.553-4.724-36.149-15.298-6.562-7.97-9.252-18.505-8.971-28.68.68-14.735 6.202-29.032 14.719-40.99 8.486-11.629 19.991-21.029 33.028-27.114zm199.702 33.004c15.681-1.682 31.902.766 46.175 7.555 11.114 5.318 21.023 13.859 26.404 25.09 4.161 8.157 5.342 17.777 3.152 26.677-2.808 12.255-11.387 22.509-21.891 29.102-25.919 16.346-61.106 15.439-86.751-1.017-10.887-6.969-19.756-17.887-22.063-30.838-.985-6.914-1.001-14.203 1.58-20.796 4.231-11.653 13.874-20.507 24.464-26.474 8.924-4.919 18.794-8.157 28.93-9.299z"/><path fill="#679C39" d="M135.309 520.713c29.806-14.962 62.74-25.035 96.324-24.675 22.227-.055 44.275 4.184 65.47 10.652-3.832 12.107-5.381 25.16-2.917 37.705 1.611 8.196 5.021 16.064 10.128 22.697.422.501 1.212 1.799.102 2.057-5.17 2.464-10.183 5.256-14.876 8.548-6.929-1.666-14.07-1.056-21.125-1.259-9.909-.203-19.826-.078-29.735-.328-11.2-.673-22.423-.282-33.63-.547-8.063-.242-16.135.07-24.19-.321-11.231-.594-22.478-.211-33.716-.54-8.587.117-17.159-.633-25.747-.524-10.957.031-21.907-.352-32.864-.281-9.377.094-18.731-.618-28.101-.759 22.32-20.867 47.621-38.598 74.877-52.425z"/><path fill="#8F2729" d="M417.194 557.018c10.543-11.919 18.293-26.443 21.68-42.022 17.112 7.133 36.579 5.889 53.996.54-6.241 10.152-9.244 22.384-7.782 34.256.939 9.612 4.481 18.927 10.019 26.834-6.781 3.316-13.124 7.743-17.941 13.609-6.804-10.668-16.518-19.506-28.007-24.879-10.011-4.748-20.937-7.415-31.965-8.338z"/><path fill="#A8302D" d="M442.253 526.368c.328-2.487 2.98-1.384 4.591-1.048 10.918 2.753 22.337 2.831 33.427 1.134-1.416 8.189-2.534 16.557-1.463 24.863.821 7.954 3.527 15.548 7.117 22.65-2.518 2.049-5.123 4.004-7.821 5.811-4.036-3.652-7.477-7.946-11.833-11.254-10.652-8.447-23.573-13.46-36.712-16.51 4.912-8.182 9.855-16.472 12.694-25.646z"/><path fill="#8F2729" d="M647.21 538.506c8.149 5.49 17.183 9.557 26.498 12.631-11.114 5.146-20.577 13.929-26.419 24.707-7.539 14.18-7.962 31.456-2.784 46.496-6.718-.54-13.483-1.463-20.202-.469-7.313.571-14.352 2.729-21.195 5.24-2.769-7.055-6.624-13.655-11.122-19.74 15.235-4.106 29.845-11.802 40.482-23.635 10.996-12.116 16.713-28.916 14.742-45.23z"/><path fill="#679C39" d="M783.171 545.646c39.316-5.451 79.524 2.651 115.743 18.129 19.177 8.376 37.729 18.645 53.762 32.199 4.036 3.77 8.619 7.383 10.824 12.615l-.422-.094c-5.443-1.408-11.082-.72-16.62-.923-9.119.031-18.207-.696-27.319-.571-12.506-.352-25.027-.031-37.517-.712-14.868-.297-29.743-.125-44.603-.766-12.224-.282-24.448-.196-36.673-.626-1.611-.016-3.199.289-4.763.61l-.156.031c-5.475-18.113-18.442-33.177-33.795-43.837-4.122-2.995-8.689-5.264-13.038-7.876 11.309-3.556 22.822-6.544 34.577-8.179z"/><path fill="#A8302D" d="M695.223 560.084c22.939-3.457 46.871 4.411 64.445 19.302 8.932 7.492 16.307 17.081 20.382 28.062 3.543 9.815 4.591 20.945.837 30.854-3.809 10.339-12.099 18.692-22.04 23.275-11.677 5.42-25.051 6.226-37.643 4.262-13.139-2.127-25.731-7.485-36.399-15.439-9.753-7.195-18.215-16.409-23.541-27.374-4.622-9.518-6.499-20.601-3.942-30.971 2.12-9.964 8.752-18.575 17.198-24.081 6.203-4.136 13.383-6.647 20.703-7.89zM355.932 591.9c20.671-18.489 51.22-24.511 77.592-16.448 12.733 3.801 24.449 11.88 31.222 23.479-3.512 7.117-6.108 14.821-6.374 22.814-.508 7.618.962 15.165 2.808 22.517-8.673 11.52-21.062 19.975-34.631 24.652-15.517 5.498-32.621 6.038-48.553 2.088-9.823-2.487-19.38-6.922-26.717-14.031-8.697-8.173-13.867-20.178-13.264-32.144.766-12.976 8.36-24.551 17.917-32.927z"/><path fill="#628837" d="M59.5 573.129l.931.008c9.37.141 18.724.852 28.101.759 10.957-.07 21.907.313 32.864.281 8.587-.109 17.159.641 25.747.524 11.239.328 22.485-.055 33.716.54 8.056.391 16.127.078 24.19.321 11.208.266 22.431-.125 33.63.547 9.909.25 19.826.125 29.735.328 7.055.203 14.195-.407 21.125 1.259-11.739 8.345-21.961 19.529-26.967 33.216-4.09 10.809-4.435 22.947-1.048 33.99.704 2.276 1.541 4.528 2.284 6.804-17.081 2.487-34.499 3.246-51.673 1.244-30.432-3.543-59.565-14.672-86.133-29.673-14.242-8.04-27.843-17.198-40.708-27.295-8.885-7.273-18.043-14.343-25.794-22.853z"/><path fill="#8F2729" d="M307.794 584.274c3.16-1.775 6.421-3.559 9.956-4.45 6.265 3.801 13.006 6.976 20.272 8.314-4.849 6.358-9.471 13.038-12.052 20.687-4.411 12.076-4.192 25.7.501 37.666 4.536 12.138 13.39 22.454 24.331 29.313-7.062 1.423-14.312 1.236-21.477.962-.094-.117-.274-.344-.36-.461-8.009-9.487-14.093-20.569-17.793-32.41-1.861-5.913-1.682-12.185-1.517-18.301.227-8.642 2.018-17.269 5.475-25.207 1.635-3.879 4.333-7.148 6.64-10.629-4.661-1.831-9.385-3.481-13.976-5.484z"/><path fill="#A8302D" d="M288.711 598.204c5.506-5.709 12.193-10.089 19.083-13.929 4.591 2.002 9.315 3.652 13.976 5.483-2.307 3.48-5.005 6.75-6.64 10.629-3.457 7.938-5.248 16.565-5.475 25.207-.164 6.116-.344 12.388 1.517 18.301 3.699 11.841 9.784 22.923 17.793 32.41-14.633-1.087-29.446-6.053-40.458-16.017-8.736-7.977-14.078-19.639-14.109-31.495.25-11.655 6.14-22.534 14.313-30.589z"/><path fill="#8F2729" d="M504.774 589.014c.978-.43 1.814.391 2.557.931 13.374 11.09 30.267 17.378 47.364 19.725 6.742 1.056 13.601.501 20.382.696 2.206 2.331 4.302 4.818 5.944 7.594-14.657 1.33-29.587.352-43.727-3.895-14.414-4.27-28.476-11.075-39.191-21.805l-.235-.227c2.26-1.087 4.466-2.362 6.906-3.019z"/><path fill="#A8302D" d="M479.887 623.215c.149-12.529 7.289-24.785 18.215-30.956 10.715 10.73 24.777 17.535 39.191 21.805 14.14 4.247 29.071 5.224 43.727 3.895 2.675 4.09 5.045 8.361 7.375 12.67-10.801 6.71-18.99 17.582-22.36 29.861-2.831 9.346-3.058 19.247-1.83 28.883-15.251 3.457-31.292-.203-45.018-7.18-11.888-5.921-21.711-15.446-28.961-26.482-6.24-9.619-10.745-20.866-10.339-32.496z"/><path fill="#8F2729" d="M458.372 621.745c.266-7.993 2.862-15.697 6.374-22.814 1.588 2.55 3.832 5.584 2.612 8.736-3.207 9.323-3.183 19.373-1.603 29.008-1.056 2.776-2.667 5.318-4.575 7.586-1.846-7.351-3.317-14.899-2.808-22.516z"/><path fill="#628837" d="M795.583 605.508c1.564-.321 3.152-.626 4.763-.61 12.224.43 24.448.344 36.673.626 14.86.641 29.736.469 44.603.766 12.49.68 25.012.36 37.517.712 9.112-.125 18.2.602 27.319.571 5.537.203 11.176-.485 16.62.923-4.411 6.89-10.879 12.107-17.065 17.324-21.547 17.089-46.175 30.205-72.125 39.207-33.357 11.52-69.756 15.579-104.512 8.431 4.607-3.332 9.495-6.359 13.366-10.59 9.862-9.995 15.9-23.917 15.611-38.034.139-6.554-1.089-13.03-2.77-19.326z"/><path fill="#8F2729" d="M566.036 660.49c3.371-12.279 11.56-23.15 22.36-29.861.626 1.377 1.204 2.792 1.775 4.208-10.425 7.766-17.808 19.451-20.225 32.238-1.619 6.937-1.337 14.086-.759 21.132-1.658.422-3.308.845-4.982 1.165-1.227-9.634-1-19.536 1.831-28.882z"/><path fill="#A8302D" d="M596.89 649.056c9.753-8.658 23.049-12.717 35.977-12.318 2.683.039 5.373.297 8.071.305 3.105 10.684 10.292 19.623 18.278 27.131 9.815 9.291 21.914 16.197 34.968 19.756 3.965 1.025 8.04 2.557 12.201 1.768l.063-.008c1.947 7.164 3.871 14.547 2.894 22.032-.868 14.657-11.129 27.624-24.323 33.49-10.856 5.076-23.228 5.592-34.929 3.887-22.83-3.519-43.774-17.175-56.538-36.376-7.571-11.419-11.755-25.77-8.533-39.371 1.571-7.845 5.856-15.048 11.871-20.296z"/><path fill="#8F2729" d="M640.938 637.043c4.2.289 8.29 1.361 12.349 2.448 11.763 17.003 29.039 30.166 48.608 36.884 1.768 2.964 3.285 6.077 4.489 9.323-4.161.79-8.235-.743-12.201-1.768-13.053-3.559-25.152-10.465-34.968-19.756-7.985-7.508-15.172-16.448-18.277-27.131zm-216.705 48.474c18.661-4.904 36.031-15.478 48.021-30.713 8.932 17.863 23.643 32.911 41.584 41.788-1.478 2.37-3.019 4.7-4.646 6.976l-.36-.274c-12.475-9.284-25.184-18.544-35.234-30.557-5.084 6.593-12.263 11.028-19.302 15.251-12.13 7.25-25.716 11.935-39.629 14.273-7.383 1.244-14.876 1.549-22.337 1.932l-.391.023c-2.252-5.037-3.645-10.394-4.122-15.885 12.187.862 24.575.409 36.416-2.814z"/><path fill="#A8302D" d="M473.599 672.738c10.05 12.013 22.759 21.273 35.234 30.557-7.164 9.745-17.566 16.714-28.453 21.695-11.739 5.131-24.691 7.579-37.486 6.937-12.678-.524-25.528-3.778-36.078-11.028-6.108-4.263-11.278-9.964-14.485-16.706 7.461-.383 14.954-.688 22.337-1.932 13.914-2.339 27.499-7.023 39.629-14.273 7.039-4.223 14.219-8.657 19.302-15.25z"/></svg>