<svg xmlns="http://www.w3.org/2000/svg" version="1.1" x="0" y="0" width="1024" height="1024" viewBox="0" enable-background="new 0 0 1024 1024" xml:space="preserve"><g display="none"><g display="inline"><ellipse transform="matrix(0.6925 0.7214 -0.7214 0.6925 565.3953 -268.3301)" fill="#0000FF" cx="597.5" cy="529.1" rx="41.4" ry="53.7"/><ellipse transform="matrix(0.1898 0.9818 -0.9818 0.1898 954.5079 29.377)" fill="#0000FF" cx="459.5" cy="593.1" rx="41.4" ry="53.7"/><ellipse transform="matrix(0.1014 0.9948 -0.9948 0.1014 880.7969 120.9313)" fill="#0000FF" cx="373.5" cy="548.1" rx="41.4" ry="53.7"/><ellipse transform="matrix(0.6925 0.7214 -0.7214 0.6925 503.2561 -186.5492)" fill="#0000FF" cx="470.5" cy="497.1" rx="41.4" ry="53.7"/><ellipse transform="matrix(0.6925 0.7214 -0.7214 0.6925 490.9342 -273.6417)" fill="#0000FF" cx="566.5" cy="439.1" rx="41.4" ry="53.7"/><ellipse transform="matrix(0.6925 0.7214 -0.7214 0.6925 628.7969 -179.0724)" fill="#0000FF" cx="524.5" cy="648.1" rx="41.4" ry="53.7"/></g><g display="inline"><ellipse transform="matrix(0.6742 -0.7386 0.7386 0.6742 -349.5273 497.8275)" fill="#D4145A" cx="389.5" cy="645.1" rx="41.4" ry="53.7"/><ellipse transform="matrix(0.1313 0.9913 -0.9913 0.1313 909.3018 56.4283)" fill="#D4145A" cx="422.5" cy="547.1" rx="41.4" ry="53.7"/><ellipse transform="matrix(0.6925 0.7214 -0.7214 0.6925 455.972 -143.619)" fill="#D4145A" cx="396.5" cy="463.1" rx="41.4" ry="53.7"/><ellipse transform="matrix(0.5305 0.8477 -0.8477 0.5305 569.2213 -223.593)" fill="#D4145A" cx="486.5" cy="402.1" rx="41.4" ry="53.7"/><ellipse transform="matrix(-0.7178 0.6962 -0.6962 -0.7178 1473.3678 316.95)" fill="#D4145A" cx="672.5" cy="457.1" rx="41.4" ry="53.7"/><ellipse transform="matrix(-0.6222 0.7829 -0.7829 -0.6222 1311.572 511.7863)" fill="#D4145A" cx="532.3" cy="572.4" rx="38.5" ry="49.9"/><ellipse transform="matrix(-0.6308 0.7759 -0.7759 -0.6308 1502.7493 525.0917)" fill="#D4145A" cx="626.5" cy="620.1" rx="41.4" ry="53.7"/><ellipse transform="matrix(-0.5835 0.8121 -0.8121 -0.5835 1552.9219 323.7178)" fill="#D4145A" cx="693.5" cy="560.1" rx="41.4" ry="53.7"/><ellipse transform="matrix(-5.552420e-02 0.9985 -0.9985 -5.552420e-02 1070.2583 -30.2864)" fill="#D4145A" cx="549.5" cy="491.1" rx="41.4" ry="53.7"/></g><g display="inline"><path fill="#659D32" stroke="#FFFFFF" stroke-width="5" stroke-miterlimit="10" d="M453 344.7c15.9 60.1-19.4 122.9-28.3 124 -9 1.1-70.1-33.6-86-93.7C322.8 314.9 367 251 367 251S437.1 284.6 453 344.7zM305 441.4c75 3 135.3 59.3 133.3 68.8 -1.9 9.5-63.4 61-138.4 58s-133.3-68.8-133.3-68.8S230 438.4 305 441.4zM521.5 303.7c24.9-70.9 90.5-114 98-109.7 7.5 4.3 32.7 76 7.9 146.9 -24.9 70.9-98 109.7-98 109.7S496.7 374.6 521.5 303.7zM674.5 350.6c63.9-50 144.5-56.4 148.1-49 3.6 7.3-19.2 82.1-83.1 132.1 -63.9 50-148.1 49-148.1 49S610.6 400.6 674.5 350.6zM745.7 492.6c68.4 1.3 124.3 48 122.8 56.1 -1.6 8.1-56.4 52.8-124.8 51.5 -68.4-1.3-122.8-56.1-122.8-56.1S677.4 491.3 745.7 492.6z"/></g><g display="inline"><ellipse transform="matrix(0.6925 0.7214 -0.7214 0.6925 566.1168 -268.0226)" fill="#D4145A" cx="597.5" cy="530.1" rx="41.4" ry="53.7"/><path fill="#FFFFFF" d="M624.4 558.2c-15.6 14.8-43.7 25.2-62.1 9 -18.2-15.9-10.1-44.1 3.4-60.1 14.3-17 41.5-29.9 62.6-17.4 9 5.3 14 15 14.8 25.2 0.9 11.6-3.3 23-9.6 32.5C630.9 551.3 627.8 554.9 624.4 558.2c-2.3 2.2 1.2 5.8 3.5 3.5 16-15.5 26.6-40.8 16-62.2 -4.6-9.3-13.5-15.8-23.4-18.4 -10.8-2.8-22.6-0.9-32.7 3.4 -22.2 9.4-40.1 31.6-41.1 56.2 -0.4 10.4 3 20.7 10.2 28.3 7.2 7.7 17.8 11.2 28.1 11.3 16 0.2 31.4-7.7 42.8-18.6C630.3 559.5 626.7 556 624.4 558.2z"/><ellipse transform="matrix(0.1898 0.9818 -0.9818 0.1898 955.4897 30.1871)" fill="#D4145A" cx="459.5" cy="594.1" rx="41.4" ry="53.7"/><path fill="#FFFFFF" d="M466.7 632.3c-21.1 4-49.8-2.6-56.8-25.8 -7-23.1 14.9-42.5 34.8-48.9 21.1-6.8 50.6-3.1 62.2 18.3 4.9 9.1 4.3 20-0.3 29.1 -5.2 10.3-14.7 17.8-25 22.6C476.8 629.8 471.7 631.3 466.7 632.3c-3.2 0.6-1.8 5.4 1.3 4.8 21.9-4.4 44.3-19.9 47.1-43.6 1.2-10.3-2.8-20.4-9.7-28 -7.4-8.2-18.3-13-29-14.9 -23.7-4.3-50.7 4.6-65.1 24.4 -6.1 8.5-8.9 18.9-7.2 29.2 1.7 10.3 8.5 18.9 16.9 24.7 13.5 9.3 31.1 11 46.9 8.1C471.1 636.5 469.8 631.7 466.7 632.3z"/><ellipse transform="matrix(0.1014 0.9948 -0.9948 0.1014 881.7916 121.8298)" fill="#D4145A" cx="373.5" cy="549.1" rx="41.4" ry="53.7"/><path fill="#FFFFFF" d="M377.7 587.8c-21.3 2.1-48.8-6.4-54.5-29.7 -5.7-23.2 17-40.9 36.8-46 21.6-5.6 50.3 0 61.4 21.4 4.7 9.1 3.9 19.8-0.8 28.7 -5.3 9.9-14.9 17.1-25.1 21.2C389.8 585.7 383.7 587.1 377.7 587.8c-3.2 0.3-3.2 5.3 0 5 21.9-2.4 45.9-15.2 51.1-38.3 2.2-10-0.2-20.5-6.2-28.7 -6.5-8.9-16.3-14.7-26.6-17.9 -22.8-7.1-50.7-1.1-67.2 16.5 -7 7.5-11.5 17.4-11.3 27.8 0.2 10.3 5.3 19.8 12.8 26.7 12.6 11.6 30.8 15.6 47.5 14C380.8 592.5 380.9 587.5 377.7 587.8z"/><ellipse transform="matrix(0.6925 0.7214 -0.7214 0.6925 503.9775 -186.2417)" fill="#D4145A" cx="470.5" cy="498.1" rx="41.4" ry="53.7"/><path fill="#FFFFFF" d="M497.4 526.2c-15.6 14.8-43.7 25.2-62.1 9 -18.2-15.9-10.1-44.1 3.4-60.1 14.3-17 41.5-29.9 62.6-17.4 9 5.3 14 15 14.8 25.2 0.9 11.6-3.3 23-9.6 32.5C503.9 519.3 500.8 522.9 497.4 526.2c-2.3 2.2 1.2 5.8 3.5 3.5 16-15.5 26.6-40.8 16-62.2 -4.6-9.3-13.5-15.8-23.4-18.4 -10.8-2.8-22.6-0.9-32.7 3.4 -22.2 9.4-40.1 31.6-41.1 56.2 -0.4 10.4 3 20.7 10.2 28.3 7.2 7.7 17.8 11.2 28.1 11.3 16 0.2 31.4-7.7 42.8-18.6C503.3 527.5 499.7 524 497.4 526.2z"/><ellipse transform="matrix(0.6925 0.7214 -0.7214 0.6925 491.6557 -273.3342)" fill="#D4145A" cx="566.5" cy="440.1" rx="41.4" ry="53.7"/><path fill="#FFFFFF" d="M593.4 468.2c-15.6 14.8-43.7 25.2-62.1 9 -18.2-15.9-10.1-44.1 3.4-60.1 14.3-17 41.5-29.9 62.6-17.4 9 5.3 14 15 14.8 25.2 0.9 11.6-3.3 23-9.6 32.5C599.9 461.3 596.8 464.9 593.4 468.2c-2.3 2.2 1.2 5.8 3.5 3.5 16-15.5 26.6-40.8 16-62.2 -4.6-9.3-13.5-15.8-23.4-18.4 -10.8-2.8-22.6-0.9-32.7 3.4 -22.2 9.4-40.1 31.6-41.1 56.2 -0.4 10.4 3 20.7 10.2 28.3 7.2 7.7 17.8 11.2 28.1 11.3 16 0.2 31.4-7.7 42.8-18.6C599.3 469.5 595.7 466 593.4 468.2z"/><ellipse transform="matrix(0.6925 0.7214 -0.7214 0.6925 629.5184 -178.765)" fill="#D4145A" cx="524.5" cy="649.1" rx="41.4" ry="53.7"/><path fill="#FFFFFF" d="M551.4 677.2c-15.6 14.8-43.7 25.2-62.1 9 -18.2-15.9-10.1-44.1 3.4-60.1 14.3-17 41.5-29.9 62.6-17.4 9 5.3 14 15 14.8 25.2 0.9 11.6-3.3 23-9.6 32.5C557.9 670.3 554.8 673.9 551.4 677.2c-2.3 2.2 1.2 5.8 3.5 3.5 16-15.5 26.6-40.8 16-62.2 -4.6-9.3-13.5-15.8-23.4-18.4 -10.8-2.8-22.6-0.9-32.7 3.4 -22.2 9.4-40.1 31.6-41.1 56.2 -0.4 10.4 3 20.7 10.2 28.3 7.2 7.7 17.8 11.2 28.1 11.3 16 0.2 31.4-7.7 42.8-18.6C557.3 678.5 553.7 675 551.4 677.2z"/><ellipse transform="matrix(0.6742 -0.7386 0.7386 0.6742 -349.332 516.2703)" fill="#D4145A" cx="410.5" cy="654.1" rx="41.4" ry="53.7"/><path fill="#FFFFFF" d="M436.6 625.2c15.8 14.6 27.6 40.6 14 60.5 -6 8.8-16.5 13-26.9 13.3 -12.2 0.4-24-4.4-33.7-11.4 -17.8-12.7-32.6-38.7-22.4-60.5 4.5-9.6 13.5-15.5 23.8-17.4 11.5-2.1 23.7 1.4 33.6 7.1C429.2 619.1 433.1 622 436.6 625.2c2.4 2.2 5.9-1.4 3.5-3.5 -16.7-15-43.3-24.4-64-11.6 -8.8 5.4-14.4 14.7-16.1 24.8 -1.8 11 0.8 22.1 5.7 32 10.8 21.5 34.8 38.1 59.3 37 10.5-0.5 20.7-4.8 27.6-12.8 6.8-7.9 9.4-18.4 8.6-28.6 -1.1-15.8-9.7-30.3-21.2-40.8C437.8 619.5 434.2 623 436.6 625.2z"/><ellipse transform="matrix(0.1313 0.9913 -0.9913 0.1313 910.2931 57.297)" fill="#D4145A" cx="422.5" cy="548.1" rx="41.4" ry="53.7"/><path fill="#FFFFFF" d="M427.9 586.6c-21.2 2.7-49-4.9-55.4-28 -6.4-23 15.6-41.4 35.3-47.2 21.4-6.2 50.4-1.6 62 19.5 5 8.9 4.6 19.7 0.2 28.7 -5 10.1-14.3 17.4-24.4 22 -5.8 2.7-12.1 4.2-18.4 5.1 -3.2 0.4-1.8 5.3 1.3 4.8 21.7-3 45.4-17.1 49.4-40.3 1.8-10.1-1.1-20.4-7.5-28.4 -6.9-8.6-16.9-14.1-27.4-16.8 -23-6.1-50.7 0.8-66.5 19.1 -6.7 7.8-10.7 17.8-10 28.2 0.7 10.3 6.2 19.6 14 26.2 12.9 10.9 30.9 14.3 47.4 12.2C431 591.2 431.1 586.2 427.9 586.6z"/><ellipse transform="matrix(0.6925 0.7214 -0.7214 0.6925 456.6934 -143.3115)" fill="#D4145A" cx="396.5" cy="464.1" rx="41.4" ry="53.7"/><path fill="#FFFFFF" d="M423.4 492.2c-15.6 14.8-43.7 25.2-62.1 9 -18.2-15.9-10.1-44.1 3.4-60.1 14.3-17 41.5-29.9 62.6-17.4 9 5.3 14 15 14.8 25.2 0.9 11.6-3.3 23-9.6 32.5C429.9 485.3 426.8 488.9 423.4 492.2c-2.3 2.2 1.2 5.8 3.5 3.5 16-15.5 26.6-40.8 16-62.2 -4.6-9.3-13.5-15.8-23.4-18.4 -10.8-2.8-22.6-0.9-32.7 3.4 -22.2 9.4-40.1 31.6-41.1 56.2 -0.4 10.4 3 20.7 10.2 28.3 7.2 7.7 17.8 11.2 28.1 11.3 16 0.2 31.4-7.7 42.8-18.6C429.3 493.5 425.7 490 423.4 492.2z"/><ellipse transform="matrix(0.5305 0.8477 -0.8477 0.5305 581.0891 -217.0197)" fill="#D4145A" cx="486.5" cy="416.1" rx="41.4" ry="53.7"/><path fill="#FFFFFF" d="M507.2 449c-18.6 11.5-49 16-63.4-4.7 -13.4-19.2-0.2-43.8 15.6-56.8 17.4-14.2 47.6-21.5 65.7-4.5 7.5 7.1 10.3 17.3 9.1 27.3 -1.3 11.1-7.5 21.3-15.2 29.2C515.5 443.2 511.5 446.3 507.2 449c-2.7 1.7-0.2 6 2.5 4.3 18.4-11.7 33.7-33.3 28.9-56.1 -2.1-10.1-9.1-18.6-18-23.6 -10-5.5-21.9-6.2-32.9-4.4 -23.5 3.9-45.8 21.9-52.5 45.1 -2.8 9.8-2.2 20.3 2.5 29.4 4.9 9.5 14.2 15.7 24.3 18.4 16.2 4.3 33.8-0.2 47.8-8.8C512.4 451.6 509.9 447.3 507.2 449z"/><ellipse transform="matrix(-0.6168 0.7871 -0.7871 -0.6168 1387.3481 218.8958)" fill="#D4145A" cx="640.4" cy="447.2" rx="41.4" ry="53.7"/><path fill="#FFFFFF" d="M616.6 478c-16.6-13.2-30.6-37.9-19-58.7 5.3-9.5 15.4-14.8 25.9-15.9 12.4-1.3 24.7 2.6 35.2 9.1 18.7 11.6 34.6 35.8 26.5 58.3 -3.6 10-12.6 16.7-22.7 19.2 -11.6 2.9-24.3 0.2-34.8-5.1C623.8 483 620 480.7 616.6 478c-2.5-1.9-6.1 1.6-3.5 3.5 17.9 13.9 46 21.6 65.5 6.3 18.1-14.2 16.1-39.5 5-57.4 -12.8-20.8-38.1-35-62.8-31.7 -10.6 1.4-20.2 7.1-26.3 16 -5.8 8.5-7 19.3-5.3 29.3 2.6 14.9 12.1 28.3 23.8 37.5C615.6 483.5 619.1 480 616.6 478z"/><ellipse transform="matrix(-0.6222 0.7829 -0.7829 -0.6222 1291.5487 503.4493)" fill="#D4145A" cx="524.3" cy="563.4" rx="38.5" ry="49.9"/><path fill="#FFFFFF" d="M502.1 591.7c-16.1-12.9-30-39.3-14.7-58.1 7-8.6 18.2-11.6 29-10.9 12.8 0.8 25 7.2 34.2 15.8 14.1 13.1 24.4 37.6 10.6 54.6C546.4 611.4 518 604.2 502.1 591.7c-2.5-2-6.1 1.5-3.5 3.5 17.6 13.8 46 21 64 3.7 7.5-7.1 10.6-17.6 9.9-27.7 -0.7-11.4-6-22-13.2-30.7 -14.9-18-42.3-29.5-64.6-18.9 -9.3 4.4-15.9 13.4-17.9 23.4 -2.2 10.7 0.6 21.7 5.7 31.1 4 7.4 9.7 13.8 16.2 19.1C501.1 597.3 504.6 593.7 502.1 591.7z"/><ellipse transform="matrix(-0.5198 0.8543 -0.8543 -0.5198 1442.3542 402.9949)" fill="#D4145A" cx="607.9" cy="606.9" rx="41.4" ry="53.7"/><path fill="#FFFFFF" d="M587.6 640.1c-17.9-11-33.9-33.4-25.8-55.2 3.7-10 12.9-16.5 22.9-19.2 11.7-3.1 24.6-1 35.5 3.8 19.8 8.7 39.2 30 35.4 53.2 -1.7 10.3-8.6 18.5-17.9 23 -10.5 5-23.1 4.6-34.1 1.5C598 645.6 592.7 643.1 587.6 640.1c-2.8-1.7-5.3 2.7-2.5 4.3 19.4 11.7 47.7 15.5 65.4-1.5 16.2-15.6 11.6-40.5-0.9-56.7 -14.7-19.2-40.9-30.9-64.9-25.6 -10.4 2.3-19.7 8.5-25.2 17.6 -5.2 8.7-5.8 19.2-3.5 28.9 3.8 15.8 15.5 29 29.1 37.3C587.9 646.1 590.4 641.8 587.6 640.1z"/><ellipse transform="matrix(-0.4681 0.8837 -0.8837 -0.4681 1462.5431 216.3338)" fill="#D4145A" cx="666.2" cy="548.4" rx="41.4" ry="53.7"/><path fill="#FFFFFF" d="M648 582.8c-18.5-9.9-36-31.3-29.2-53.5 3.1-10.1 11.6-17.2 21.4-20.5 11.4-3.8 24-2.6 35.2 1.2 20.8 7.2 41.1 27.2 39.4 50.6 -0.7 10.3-7 19.1-15.7 24.2 -9.9 5.8-22.2 6.5-33.3 4.3C659.6 587.9 653.6 585.7 648 582.8c-2.9-1.5-5.4 2.8-2.5 4.3 19.9 10.4 48.1 12.8 64.9-4.8 7-7.3 10.2-17.5 9.5-27.5 -0.8-10.8-5.8-20.7-12.6-28.9 -15.3-18.5-42.2-28.8-65.8-22.7 -10.2 2.6-19.3 9-24.6 18.2 -5 8.8-5.5 19.3-2.8 29 4.4 16.1 17.1 29 31.5 36.8C648.3 588.6 650.9 584.3 648 582.8z"/><ellipse transform="matrix(-5.552420e-02 0.9985 -0.9985 -5.552420e-02 1071.2567 -29.2308)" fill="#D4145A" cx="549.5" cy="492.1" rx="41.4" ry="53.7"/><path fill="#FFFFFF" d="M547.2 530.9c-21-1.3-46.8-14-48.8-37.6 -2-23.5 22.2-37.7 42.6-39.9 21.9-2.3 49.6 7 57.8 29.4 3.5 9.6 1.8 19.9-3.9 28.2 -6.1 9.1-16.5 14.8-26.8 17.8C561.3 530.7 554.2 531.3 547.2 530.9c-3.2-0.2-3.2 4.8 0 5 22 1.1 47-8.1 56-29.8 3.9-9.4 2.9-20.1-1.4-29.1 -4.7-9.7-13.5-17.1-23-21.9 -21.2-10.7-49.4-9.7-68.7 4.7 -8.2 6.1-14.4 14.8-16.2 25 -1.8 10.1 1.2 20.3 7.2 28.5 10.6 14.4 28.7 21.6 46.1 22.6C550.4 536.1 550.4 531.1 547.2 530.9z"/></g></g><path fill="#659D32" d="M276.1 402.9c9.7 32.3 29.1 57.3 47.2 74.9 8.3-9.4 18.6-17.2 29.8-22.4 13.1-6.1 28.3-9 42.5-5.8 6.7 1.5 13.1 4.4 18.6 8.5 0.2-3.4 0.8-6.8 1.6-10.2 1.5-6 3.9-11.8 6.8-17.2 2.7-22.1 2-46.4-5.1-70.2 -20.4-68.2-96.6-108-111.6-115.2C297.4 259.7 255.7 334.8 276.1 402.9zM268.2 632.4c-0.7-13.5 4.7-26.5 13.5-36.6 10.4-11.9 24.8-20.1 40.3-24.2 -2-1.4-3.9-2.9-5.6-4.7 -9.6-9.6-14.5-22.9-14.4-36.4 0.1-7.5 1.3-14.8 3.6-21.8 -22.7-8-47.7-13.3-73.6-13.5 -2.3 0-4.6 0-6.9 0.1 -83.2 2.7-153 65.3-166.4 78 13.5 13.3 85.7 80.1 172 80.8 2.7 0 5.4 0 8.1-0.1 11.8-0.4 23.2-1.8 34.1-3.9C270.2 644.6 268.5 638.6 268.2 632.4zM550 421.3c0.8 3.5 1.3 6.9 1.5 10.4 6.7-6 14.2-11 22.2-14.7 11.6-5.4 25-8.3 37.8-6.6 13.6-18.6 25.6-40 33.2-64.1 28.9-91.6-6.5-181.8-14.7-187.1 -0.1 0-0.1 0-0.3 0 -6.5 0.2-29.4 14.4-53.7 39.5 -21.1 21.8-49.4 57.8-64.5 105.6 -8.7 27.5-10.7 55.5-9.2 81.2 8.1 0.4 16 2.2 23.3 5.9C537.4 397.4 546.8 408.2 550 421.3zM659.6 419.5c31.2-4.2 63.6 13.1 80.7 39 6.2 9.4 10.5 20.5 11.8 31.7 14.9-8 29.7-17.7 43.5-29.3 79.2-66.2 105.1-161.3 102-171.3 -0.7-0.4-3.6-1.6-13.1-1.3 -36.3 1.2-112.2 21.3-173 72.1C690.4 378.1 673.3 398.8 659.6 419.5zM920.4 571.6c-20.7-10.9-62.8-29-112-28.3 -1.1 0-2.1 0-3.2 0.1 -23.6 0.8-45.9 6.5-65.8 14.4 13.7 5.1 26.2 13.4 35.7 24.1 9.2 10.4 16.2 23.1 17.7 37.1 1.4 13-2.3 26.4-11.2 36.3 -6.4 7.2-14.3 12-23 14.9 16.2 4.5 33.6 7.2 51.6 6.9 1.2 0 2.5 0 3.7-0.1 46.1-1.5 84.5-18.6 108.7-32.6 29.2-17 44-33.2 44.9-36.8C966.9 604.1 952 588.2 920.4 571.6z"/><path fill="#AA2F29" d="M657.1 579.8c6.2-11.8 17.2-20.2 29.8-24.3 -2.7-5.8-6.7-10.9-11.9-14.8 -5.5-1.9-10.7-4.3-15.7-7.1 -6.5-1.6-13.1-1.7-19.7-0.7 2.5 9 2.4 18.7-1 27.6 -9.5 25.2-35.7 38.4-61.5 40.8 2 1.9 4 3.8 5.8 5.9 8.2 9.3 14.6 20.4 17.4 32.5 5-3.4 10.7-5.9 16.6-7.4 14.5-3.7 29.7-2.6 43.8 2.1 0.4-0.3 0.8-0.6 1.2-1 -3.1-4.9-5.6-10.1-7.3-15.7C650.8 605.3 651 591.5 657.1 579.8zM518.8 688.7c-4.5-2.3-8.8-4.8-12.6-7.7 -8.7-6.5-16.4-14.7-21.9-24.1 -4.3-7.4-7.4-15.5-8.7-24 -8.1 25.6-35.3 41.9-60.8 46.2 -0.1 0-0.3 0-0.4 0 -0.1 0-0.3 0.1-0.4 0.1 -8 1.3-16.2 1.6-24.4 0.7 -1.1 6.2-0.8 12.8 1.5 19.5 10.2 29.9 47.8 37.2 75.1 31.2 6.6-1.5 13.1-3.7 19.2-6.7 13.2-6.7 25.3-16.8 31.6-30.5C517.6 691.9 518.2 690.3 518.8 688.7zM351.7 665.4c-10.5-8.2-18-20.1-19.4-33.5 -1.3-13.5 3.5-26.7 11.9-37.1 4.7-5.8 10.3-10.9 16.5-15 -2.4 0.3-4.7 0.5-7.1 0.6 -7.7 0.2-15.5-1.1-22.6-4 -3 0.5-6 1.2-8.9 2 -25.7 7.5-54.5 31.5-46.1 61.5 8.5 30.2 44.6 40 72.3 36.5 5.2-0.7 10.4-1.9 15.4-3.6C359.4 670.7 355.4 668.3 351.7 665.4zM497.9 585.3c4-2.1 8.2-3.6 12.4-4.6 0.2-0.3 0.4-0.6 0.6-0.9 -1.8-1.8-3.5-3.7-5.1-5.7 -8.2-10.4-12.5-23.6-10.6-36.8 1.7-11.7 7.9-22 16.3-29.9 -2.3-2.2-4.8-4.1-7.6-5.6 -15.8 7.8-34 11.4-51.3 7.4 -2.4-0.6-4.8-1.3-7.2-2.2 -5.8 3.6-11.2 7.9-15.9 12.5 -4.1 12.7-11.5 24.6-20.5 34.1 -1.1 3.7-1.9 7.5-2.4 11.4 7.9-0.3 15.7 0.4 23.2 2.1 13.8 3.2 27.1 9.9 36.4 20.8 5.1 6 8.7 13.1 10.3 20.7 0.4-0.2 0.8-0.4 1.2-0.6C481.7 598.3 488.6 590.1 497.9 585.3zM551.1 441.2c-1.9 15.5-10.2 30-21.2 41.6 -0.7 4.3-1 8.6-0.8 12.8 23.3-11.3 52.4-11.2 75.6-0.4 7.7 3.6 15.2 8.5 21.2 14.6 1.1-1.2 2.2-2.4 3.3-3.7 -5.4-7.9-9.4-16.6-11.3-25.9 -2.6-12.9-1.6-27 5.6-38.3 3.2-5 7.2-9.3 11.9-12.7 -2.6-2.7-5.6-5.1-9-7C601 408.1 570 421.6 551.1 441.2zM413.3 672.8c8-1.4 16-3.7 23.3-7.3 12.9-6.4 24.8-16.3 30.8-29.7 5.4-12 5.4-26-1.4-37.4 -16.1-27-54.1-31.7-81.6-22.7 -25.5 8.3-53.4 33.2-44.1 62.9C349.6 668.3 385.8 677.1 413.3 672.8zM323.3 564.2c24.7 20.3 60.8 5.6 80.6-14.4 4.3-4.4 8.2-9.2 11.4-14.4 7.5-12.1 12.3-26.5 11.3-40.9 -2.4-2.5-4.5-5.3-6.2-8.4 -3.4-6-5.3-12.6-5.9-19.4 -2.4-2.4-5.2-4.6-8.4-6.3 -28-15.3-62.9 2.6-80.8 25.3C308.3 507.2 298.9 544.2 323.3 564.2zM428.4 486.7c19.6 26.3 59 19.2 82.8 3.4 5.5-3.7 10.6-8 15-12.8 9.7-10.5 17.4-24.1 18.6-38.6 1.1-13.1-2.9-26.4-13.1-35.2 -24.4-21.4-63.4-10.6-85.4 8.7C426.3 429.6 410.2 462.2 428.4 486.7zM627.8 447.6c-14.2 27.5 5 59.2 27.2 75.7 4.6 3.3 9.5 6.3 14.7 8.6 14 6.4 30.5 9.4 45.6 5.1 13-3.7 24.5-12.8 28.8-26 9.6-29.6-12.1-60.6-37-74.9 -13.9-8-30.2-12.6-46.2-10.3C647.2 427.7 634.2 435 627.8 447.6zM579.6 683.5c-0.8-9.4 0.7-18.9 5.3-27.2 2.6-4.6 5.9-8.7 9.7-12.2 -2.7-15-12.1-29.6-23.1-39.1 -1.3-1.1-2.7-2.2-4.1-3.3 -0.2 0-0.4 0-0.5 0 -17.1-0.5-34.8-5.4-48.6-15.6 -11.3 1.2-22.2 5.8-29.3 15.1 -19.1 25.2 0.1 58.9 21.6 75.1C529.1 689.9 559.8 697.8 579.6 683.5zM672.5 646.6c-2.9-1.6-5.9-3-8.9-4.2 -14.5-5.8-31.3-8-46.5-3.5 -12.9 3.9-24.6 12.8-29.1 26 -9.6 28.7 12.1 57.2 35.9 70.8 6.7 3.7 13.7 6.7 21.2 8.5 14.4 3.5 30.9 3.6 44.3-3.4 12-6.2 20.6-17.2 22.4-30.7 2.4-18.2-6-35.1-18.7-48C685.8 658 678.7 652.7 672.5 646.6zM767 659c11.2-7 19-18.8 19.5-32.2 1.2-30.7-26.1-55.9-53.5-64.3 -14.8-4.6-31.2-5.6-45.9-0.1 -12.6 4.7-23.4 14.4-27 27.7 -7.9 29.3 15.8 56.3 40.3 68.5 7.4 3.6 15.3 6.2 23.4 7.5C738.2 668.4 754.3 667 767 659zM566.7 595.2c9.2 0.2 18.4-0.9 27.2-3.7 13.4-4.2 26.6-12.1 34.2-24.3 7-11.1 8.8-24.6 3.9-36.9 -11.6-28.9-48.1-39.8-76.5-35.9 -26.5 3.7-57.4 23.2-53.9 53.7C505.1 578.8 539.3 594.4 566.7 595.2z"/></svg>